<?xml version="1.0" standalone="no"?>
<!DOCTYPE svg PUBLIC "-//W3C//DTD SVG 20010904//EN"
 "http://www.w3.org/TR/2001/REC-SVG-20010904/DTD/svg10.dtd">
<svg version="1.0" xmlns="http://www.w3.org/2000/svg"
 width="1023.000000pt" height="886.000000pt" viewBox="0 0 1023.000000 886.000000"
 preserveAspectRatio="xMidYMid meet">

<g transform="translate(0.000000,886.000000) scale(0.100000,-0.100000)"
fill="#000000" stroke="none">
<path d="M4738 7291 c-31 -10 -72 -28 -91 -40 -19 -11 -43 -21 -54 -21 -11 0
-38 -12 -59 -26 -39 -27 -69 -31 -125 -19 -43 10 -142 -39 -162 -79 -35 -71
-39 -91 -26 -139 l11 -47 -45 -40 c-51 -46 -64 -85 -42 -126 18 -34 7 -50 -50
-75 -44 -20 -120 -94 -154 -150 -21 -36 -38 -111 -61 -269 -6 -41 -16 -95 -22
-120 -6 -25 -15 -76 -19 -115 -25 -223 -47 -318 -89 -390 -10 -16 -20 -55 -23
-85 -3 -31 -19 -105 -36 -165 l-32 -110 26 -75 c15 -41 28 -88 31 -105 3 -16
7 -45 10 -64 3 -20 18 -45 37 -63 l32 -30 -28 6 -28 7 20 -38 c11 -21 26 -47
35 -58 15 -19 15 -19 16 11 0 25 5 33 25 38 14 4 25 11 25 16 0 6 5 10 11 10
6 0 9 -6 6 -13 -3 -8 -1 -20 5 -28 8 -11 9 -10 4 4 -3 11 0 17 10 17 9 0 12 5
8 12 -4 7 -3 8 5 4 6 -4 9 -11 6 -16 -3 -4 0 -10 6 -12 5 -2 11 -17 11 -34 1
-26 5 -31 25 -31 13 0 32 -12 44 -27 11 -14 27 -26 35 -26 8 0 14 -6 14 -14 0
-12 5 -12 30 1 18 8 41 12 55 9 13 -3 44 1 67 10 24 8 57 17 75 20 18 2 44 16
59 29 31 29 22 27 144 25 59 -1 98 -6 102 -13 4 -7 8 -32 8 -55 0 -40 -6 -50
-58 -105 -92 -97 -115 -148 -114 -247 0 -46 4 -57 23 -70 13 -8 30 -23 38 -32
12 -14 31 -18 91 -18 43 0 81 -5 87 -11 14 -14 143 -2 143 12 0 6 4 8 9 5 7
-5 119 12 129 19 11 8 -15 35 -33 35 -26 0 -65 42 -65 69 0 9 -7 27 -16 39
-17 25 -15 32 9 36 24 3 47 27 47 48 0 31 -93 108 -132 108 -26 0 -22 -32 7
-66 30 -35 28 -48 -10 -52 -38 -5 -100 26 -119 60 -17 27 -21 75 -8 94 18 30
108 66 166 68 36 1 61 7 64 14 2 7 8 12 13 12 6 0 22 11 36 24 19 18 35 24 56
21 44 -6 50 3 27 35 -23 32 -25 60 -9 127 25 103 51 153 91 175 21 12 38 25
38 30 0 4 6 8 13 8 19 0 40 -121 34 -195 -3 -33 -9 -92 -13 -130 l-7 -70 54
-22 c88 -34 94 -36 103 -34 4 1 14 -3 22 -9 17 -15 54 -3 56 18 5 58 -11 99
-55 144 -16 15 -27 34 -25 41 7 18 40 20 73 3 16 -8 32 -13 37 -10 4 3 8 -1 8
-9 0 -9 13 -14 36 -15 20 -1 42 -6 49 -12 14 -12 25 -3 25 22 0 10 5 18 11 18
6 0 9 -6 6 -14 -4 -9 3 -16 17 -18 28 -6 48 1 40 13 -3 5 8 9 24 9 23 0 32 -6
41 -27 8 -21 19 -29 41 -30 18 -1 30 3 30 10 0 7 9 20 21 30 16 14 27 16 55 8
30 -8 38 -7 54 9 12 12 34 20 57 20 70 1 72 1 67 15 -4 9 4 17 20 21 34 8 66
-19 66 -55 0 -15 8 -31 20 -38 15 -10 18 -10 14 0 -2 7 2 21 11 32 14 19 16
19 29 3 20 -27 33 -22 40 17 4 20 11 33 17 30 5 -4 9 0 9 7 0 7 11 0 25 -16
16 -19 30 -26 41 -22 11 4 15 2 11 -8 -4 -10 4 -15 24 -18 25 -4 28 -2 23 14
-3 10 -1 18 5 18 6 0 10 3 9 8 -4 20 42 100 61 105 18 4 21 13 21 69 1 34 7
81 15 103 8 22 15 59 15 81 0 24 8 51 18 65 22 29 46 81 62 134 7 22 15 46 17
53 4 8 -6 12 -29 12 l-34 0 -12 83 c-6 45 -18 116 -26 157 -17 86 -23 131 -35
290 -5 63 -15 129 -21 145 -7 18 -9 53 -6 85 12 110 -26 232 -93 301 -43 43
-91 68 -163 83 -34 8 -35 27 -7 72 38 62 27 81 -87 138 -55 28 -123 71 -150
95 -52 46 -115 80 -149 81 -12 0 -25 4 -30 8 -18 16 -137 55 -174 57 -20 2
-47 7 -61 12 -47 19 -55 20 -84 12 -16 -5 -34 -5 -40 0 -18 15 -82 16 -98 3
-12 -10 -22 -7 -50 12 -20 13 -52 29 -72 35 -20 6 -51 16 -69 21 -44 13 -84
13 -89 -1 -3 -9 -9 -9 -25 0 -32 17 -140 12 -205 -8z m215 -57 c11 -14 17 -27
15 -30 -7 -6 -58 35 -58 47 0 18 25 8 43 -17z m-59 -13 c-2 -3 -12 3 -22 13
-16 17 -16 18 5 5 12 -7 20 -15 17 -18z m-319 -31 c3 -5 1 -10 -4 -10 -6 0
-11 5 -11 10 0 6 2 10 4 10 3 0 8 -4 11 -10z m85 0 c0 -5 -2 -10 -4 -10 -3 0
-8 5 -11 10 -3 6 -1 10 4 10 6 0 11 -4 11 -10z m-50 -41 c0 -14 -17 -10 -23 5
-4 10 -1 13 9 9 7 -3 14 -9 14 -14z m-166 -4 c8 -8 28 -15 45 -15 35 0 45 -12
36 -41 -6 -18 -13 -20 -42 -16 l-36 6 23 -24 c13 -14 20 -28 17 -31 -4 -4 -30
-9 -58 -12 l-52 -5 6 37 c4 28 2 36 -9 36 -8 0 -20 -11 -26 -25 -16 -35 -48
-33 -48 3 0 32 25 72 44 72 8 0 16 7 20 15 3 9 18 15 35 15 16 0 36 -7 45 -15z
m243 -11 c-3 -3 -12 -4 -19 -1 -8 3 -5 6 6 6 11 1 17 -2 13 -5z m-88 -18 c9
-11 6 -15 -19 -18 -19 -3 -30 0 -30 7 0 27 30 34 49 11z m-251 -108 c-3 -7
-13 -13 -23 -13 -10 0 -20 6 -22 13 -3 7 5 12 22 12 17 0 25 -5 23 -12z m1220
-157 c13 -1 22 -7 22 -16 0 -8 7 -15 16 -15 9 0 28 -6 42 -14 15 -8 43 -22 62
-31 19 -9 46 -23 60 -31 14 -7 33 -14 43 -14 9 0 17 -4 17 -9 0 -5 16 -15 35
-22 19 -7 35 -16 35 -20 0 -4 23 -10 52 -14 39 -6 58 -14 77 -36 22 -25 65
-127 77 -184 5 -23 -7 -45 -27 -49 -19 -3 -84 -44 -82 -51 1 -4 8 -16 15 -28
8 -12 14 -39 13 -59 -1 -21 3 -38 8 -38 5 0 7 -7 3 -15 -3 -10 1 -15 12 -16
16 -1 16 -2 0 -6 -21 -5 -24 -23 -5 -24 10 0 10 -2 0 -6 -7 -2 -13 -11 -13
-19 0 -9 -4 -13 -9 -9 -5 3 -12 1 -16 -5 -3 -5 1 -10 9 -10 20 0 21 -16 1 -24
-8 -3 -19 2 -24 12 -7 13 -9 11 -8 -11 2 -22 6 -26 22 -21 20 7 20 6 1 -15
-15 -16 -21 -18 -28 -9 -6 10 -10 10 -19 -2 -9 -13 -10 -13 -6 2 4 10 -1 18
-15 21 -15 4 -18 11 -13 26 4 12 2 21 -4 21 -6 0 -11 -10 -11 -22 -1 -21 -2
-21 -11 -5 -11 18 -39 24 -39 7 0 -5 4 -10 9 -10 15 0 20 -39 8 -70 -12 -31
-21 -37 -31 -21 -10 15 -49 0 -94 -37 -34 -28 -54 -36 -95 -39 -29 -3 -65 -10
-82 -18 -16 -7 -61 -13 -99 -14 -54 -1 -78 -7 -117 -29 -27 -15 -49 -34 -50
-42 -5 -124 -5 -129 16 -134 24 -6 88 2 133 16 18 5 39 8 46 5 7 -3 31 -2 54
3 25 4 45 3 51 -3 18 -18 13 -27 -14 -27 -14 0 -25 -4 -25 -10 0 -5 -7 -10
-15 -10 -23 0 -77 -29 -100 -54 -11 -11 -27 -22 -35 -24 -8 -2 -22 -10 -31
-18 -10 -9 -45 -17 -89 -19 -62 -4 -76 -2 -101 17 -25 19 -33 20 -65 10 -21
-6 -42 -8 -47 -5 -6 3 -7 1 -3 -5 4 -7 2 -12 -5 -12 -14 0 -38 30 -39 48 0 7
-17 39 -37 72 -42 66 -63 74 -107 39 -35 -28 -50 -15 -69 59 -8 32 -24 63 -40
78 -15 14 -27 36 -27 50 0 13 -6 27 -14 30 -23 9 -14 110 12 134 12 12 22 25
22 31 0 5 12 21 26 34 14 13 23 29 19 34 -3 6 -3 11 2 11 4 0 14 17 20 39 9
29 10 46 1 69 -8 21 -9 41 -2 64 6 19 7 51 2 78 -10 54 -3 90 17 90 8 0 15 4
15 10 0 5 -8 7 -17 3 -17 -6 -17 -5 0 14 9 11 17 27 17 36 0 9 5 19 10 22 6 4
8 11 4 16 -3 5 0 17 7 25 6 8 9 17 5 21 -3 4 -13 -2 -21 -13 -10 -13 -14 -15
-15 -5 0 8 8 23 17 33 15 17 15 21 3 29 -13 9 -13 10 0 8 25 -4 51 12 41 25
-4 6 -12 21 -15 34 -6 16 -3 22 8 22 9 0 15 5 14 11 -2 6 6 13 16 15 10 1 22
7 25 12 7 10 121 3 121 -7 0 -4 14 -6 30 -5 17 1 32 -2 35 -6 3 -5 21 0 39 11
18 11 41 17 50 13 9 -3 23 -1 31 6 8 7 15 10 15 7 0 -3 11 0 24 7 21 10 81 12
244 7z m-698 -76 c0 -8 -4 -15 -10 -15 -5 0 -10 7 -10 15 0 8 5 15 10 15 6 0
10 -7 10 -15z m30 1 c0 -3 -4 -8 -10 -11 -5 -3 -10 -1 -10 4 0 6 5 11 10 11 6
0 10 -2 10 -4z m-30 -46 c0 -5 -4 -10 -10 -10 -5 0 -10 5 -10 10 0 6 5 10 10
10 6 0 10 -4 10 -10z m40 -10 c0 -5 -4 -10 -10 -10 -5 0 -10 5 -10 10 0 6 5
10 10 10 6 0 10 -4 10 -10z m1020 -681 c0 -6 -4 -7 -10 -4 -5 3 -10 11 -10 16
0 6 5 7 10 4 6 -3 10 -11 10 -16z m126 -6 c-7 -7 -26 7 -26 19 0 6 6 6 15 -2
9 -7 13 -15 11 -17z m33 13 c9 -10 8 -15 -2 -19 -8 -3 -13 3 -13 14 0 23 0 23
15 5z m-185 -41 c-4 -8 -11 -15 -16 -15 -6 0 -5 6 2 15 7 8 14 15 16 15 2 0 1
-7 -2 -15z m-1204 -24 c14 -27 13 -34 -5 -27 -8 3 -14 1 -12 -3 4 -15 -18 -13
-27 2 -7 10 -5 21 3 31 18 21 28 20 41 -3z m-240 -251 c0 -5 -7 -10 -15 -10
-8 0 -15 5 -15 10 0 6 7 10 15 10 8 0 15 -4 15 -10z m1468 -90 c-5 -32 1 -37
21 -17 10 10 11 8 5 -7 -6 -16 -4 -17 12 -8 19 10 53 15 86 13 10 -1 20 -12
24 -26 3 -14 10 -25 15 -25 4 0 16 -16 25 -36 13 -26 14 -38 5 -47 -6 -6 -11
-19 -11 -29 0 -15 -6 -18 -27 -14 -16 2 -34 5 -40 5 -7 1 -13 7 -13 14 0 8 -9
22 -20 33 -12 10 -28 27 -38 37 -21 22 -33 22 -25 0 5 -13 3 -15 -13 -9 -10 5
-33 12 -51 17 -18 6 -35 14 -38 18 -9 15 -183 12 -273 -5 -48 -9 -91 -17 -96
-17 -5 -1 -10 3 -13 9 -6 18 78 44 144 44 34 0 64 4 67 8 9 15 151 -3 162 -20
4 -7 9 -6 14 3 6 9 12 9 25 -4 19 -20 45 -22 45 -4 0 17 -12 32 -32 40 -29 11
-1 49 41 56 2 1 1 -12 -1 -29z m-1363 -50 c17 -4 26 -8 22 -9 -4 0 -3 -9 2
-19 9 -17 7 -17 -57 -1 -37 10 -79 18 -94 18 -16 1 -28 6 -28 11 0 12 110 12
155 0z m-37 -107 c18 -17 8 -30 -11 -14 -8 6 -36 14 -63 18 l-49 7 35 7 c41 7
69 2 88 -18z m-219 -131 c-11 -5 -79 37 -79 48 0 5 12 13 28 18 25 9 28 7 43
-27 9 -20 12 -37 8 -39z m171 74 c0 -11 -19 -15 -25 -6 -3 5 1 10 9 10 9 0 16
-2 16 -4z m127 -43 c7 -18 -15 -43 -38 -43 -20 0 -23 10 -13 46 4 16 11 20 26
16 11 -2 22 -11 25 -19z m1238 7 c23 -25 14 -45 -24 -58 l-31 -11 0 38 c0 56
22 68 55 31z m-311 -26 c9 -22 8 -24 -9 -24 -8 0 -15 9 -15 20 0 24 15 27 24
4z m-1069 -15 c0 -7 -8 -15 -17 -17 -18 -3 -25 18 -11 32 10 10 28 1 28 -15z
m1223 -26 c-2 -10 -12 -18 -23 -18 -11 0 -21 8 -23 18 -3 13 3 17 23 17 20 0
26 -4 23 -17z m32 -129 c0 -11 -8 -14 -27 -12 -39 4 -42 28 -4 28 21 0 31 -5
31 -16z m-1212 -57 c18 -15 15 -24 -13 -31 -26 -7 -65 8 -65 24 0 16 59 22 78
7z m1120 -34 c-2 -10 -10 -18 -18 -18 -8 0 -16 8 -18 18 -2 12 3 17 18 17 15
0 20 -5 18 -17z"/>
<path d="M4395 7100 c3 -5 13 -10 21 -10 8 0 12 5 9 10 -3 6 -13 10 -21 10 -8
0 -12 -4 -9 -10z"/>
<path d="M4930 6630 c0 -5 5 -10 10 -10 6 0 10 5 10 10 0 6 -4 10 -10 10 -5 0
-10 -4 -10 -10z"/>
<path d="M5980 6280 c0 -5 5 -10 11 -10 5 0 7 5 4 10 -3 6 -8 10 -11 10 -2 0
-4 -4 -4 -10z"/>
<path d="M5985 6220 c3 -5 8 -10 11 -10 2 0 4 5 4 10 0 6 -5 10 -11 10 -5 0
-7 -4 -4 -10z"/>
<path d="M5950 6199 c0 -5 5 -7 10 -4 6 3 10 8 10 11 0 2 -4 4 -10 4 -5 0 -10
-5 -10 -11z"/>
<path d="M5945 6150 c-3 -5 -1 -10 4 -10 6 0 11 5 11 10 0 6 -2 10 -4 10 -3 0
-8 -4 -11 -10z"/>
<path d="M5824 6069 c-3 -5 1 -9 9 -9 8 0 18 -7 21 -16 4 -12 2 -15 -9 -10
-15 5 -21 -5 -9 -17 12 -11 41 16 37 34 -5 19 -40 32 -49 18z"/>
<path d="M4237 7173 c-12 -11 -8 -23 8 -23 8 0 15 7 15 15 0 16 -12 20 -23 8z"/>
<path d="M6553 5293 c-8 -3 -13 -24 -13 -59 0 -60 16 -73 25 -21 9 46 3 85
-12 80z"/>
<path d="M6439 5068 c0 -2 -2 -34 -3 -73 -2 -38 -7 -78 -11 -88 -6 -15 -4 -18
15 -15 13 1 26 10 30 18 35 71 41 89 38 120 -3 31 -6 35 -35 38 -18 2 -33 2
-34 0z"/>
<path d="M6287 4934 c-9 -10 2 -24 18 -24 9 0 12 6 9 15 -6 16 -17 19 -27 9z"/>
<path d="M3830 4791 c0 -11 12 -33 26 -48 18 -19 24 -22 20 -10 -3 10 -6 26
-6 35 0 10 -9 23 -20 30 -17 11 -20 10 -20 -7z"/>
<path d="M5140 4647 c-33 -16 -70 -48 -70 -61 0 -6 9 -17 21 -24 18 -11 26
-10 60 7 21 11 39 18 39 14 0 -3 9 6 21 21 11 15 18 33 15 41 -6 18 -51 19
-86 2z"/>
<path d="M3885 4606 c0 -37 15 -44 15 -8 0 18 -4 32 -8 32 -4 0 -8 -11 -7 -24z"/>
<path d="M5285 4571 c-11 -5 -24 -6 -28 -4 -5 3 -19 2 -33 -1 -20 -5 -23 -10
-14 -25 5 -11 9 -36 7 -58 -1 -28 2 -37 12 -35 8 2 11 -3 8 -13 -4 -8 -2 -15
2 -15 11 0 23 29 16 40 -2 4 7 8 20 8 22 0 23 -3 13 -16 -7 -8 -13 -27 -13
-42 0 -24 3 -27 22 -19 13 5 25 4 28 -1 4 -6 18 -7 32 -4 18 5 24 3 19 -5 -11
-18 20 -13 35 6 11 13 11 17 2 20 -7 3 -13 11 -13 19 0 8 -6 11 -15 8 -9 -4
-16 3 -21 20 -3 14 -12 26 -19 26 -15 0 -29 30 -19 39 4 3 9 0 11 -7 3 -6 9
-9 15 -6 5 4 2 14 -8 25 -9 10 -14 25 -11 34 7 17 -14 19 -48 6z m25 -81 c0
-5 -4 -10 -10 -10 -5 0 -10 5 -10 10 0 6 5 10 10 10 6 0 10 -4 10 -10z m70
-80 c0 -5 -4 -10 -10 -10 -5 0 -10 5 -10 10 0 6 5 10 10 10 6 0 10 -4 10 -10z"/>
<path d="M4955 4369 c-8 -25 18 -48 56 -49 43 0 45 35 4 54 -43 21 -52 20 -60
-5z"/>
<path d="M5060 4345 c-10 -12 -10 -15 3 -15 8 0 17 7 21 15 3 8 2 15 -3 15 -5
0 -14 -7 -21 -15z"/>
<path d="M4589 4166 c-86 -24 -157 -77 -157 -118 -3 -169 -6 -205 -19 -226 -7
-12 -11 -27 -8 -32 3 -6 3 -16 -2 -22 -9 -16 -11 -26 -17 -103 -3 -33 -10 -61
-16 -63 -5 -2 -10 -8 -10 -13 0 -4 7 -6 15 -3 23 9 62 -27 60 -56 -1 -14 8
-34 22 -47 12 -13 23 -27 23 -30 0 -8 70 -73 78 -73 3 0 13 -7 23 -16 20 -18
43 -10 35 12 -4 11 3 13 32 9 53 -7 102 4 95 21 -6 16 13 19 22 4 9 -15 63
-12 89 6 13 8 27 27 31 42 4 15 13 35 22 44 15 17 11 38 -9 38 -5 0 -22 12
-37 28 -41 40 -73 62 -101 68 -14 3 -36 10 -50 15 -14 4 -38 10 -55 12 -20 2
-31 10 -33 23 -2 10 -12 37 -22 59 -19 38 -20 52 -7 85 3 8 8 27 11 41 10 47
43 55 148 33 127 -25 298 -27 345 -3 24 13 55 17 111 16 85 -1 99 4 160 60 23
21 57 52 76 68 20 17 38 37 41 45 9 23 -24 40 -78 40 -27 0 -67 5 -88 12 -47
14 -59 6 -34 -23 17 -17 17 -22 5 -29 -17 -11 -55 -12 -87 -4 -17 5 -23 14
-23 35 0 17 -5 29 -13 29 -9 0 -11 -12 -9 -40 6 -61 -10 -74 -78 -65 -30 4
-88 9 -128 11 -87 3 -104 14 -100 63 3 30 0 36 -17 36 -11 0 -20 -7 -20 -15
-1 -28 -16 -40 -53 -40 -47 0 -95 30 -82 50 7 12 12 12 22 2 18 -18 37 -15 31
7 -4 18 -34 32 -58 30 -5 -1 -44 -11 -86 -23z"/>
<path d="M4990 4140 c0 -5 7 -10 15 -10 8 0 15 5 15 10 0 6 -7 10 -15 10 -8 0
-15 -4 -15 -10z"/>
<path d="M4020 3987 c0 -6 69 -150 80 -167 29 -43 52 -100 47 -112 -12 -32
-116 -36 -194 -8 -80 28 -97 26 -146 -19 -50 -46 -97 -71 -132 -71 -14 0 -43
-9 -64 -19 -21 -11 -80 -26 -132 -34 -80 -13 -146 -28 -364 -87 -16 -5 -55
-16 -85 -25 -88 -26 -223 -54 -369 -75 -35 -5 -69 -14 -76 -20 -7 -6 -27 -12
-44 -13 -17 -1 -31 -5 -31 -9 0 -5 -9 -8 -20 -8 -11 0 -20 -4 -20 -10 0 -5 -5
-10 -11 -10 -6 0 -9 7 -5 15 4 11 -1 15 -19 15 -18 0 -23 -4 -19 -15 4 -8 1
-15 -5 -15 -6 0 -11 5 -11 10 0 6 -8 10 -17 9 -11 0 -13 -3 -5 -6 24 -10 11
-21 -33 -27 -25 -4 -45 -11 -45 -16 0 -5 -8 -8 -17 -8 -10 1 -30 -2 -45 -5
-19 -5 -28 -3 -28 4 0 36 -207 -59 -280 -129 -28 -27 -48 -51 -45 -53 3 -3 -5
-11 -18 -18 -25 -13 -142 -136 -229 -241 -53 -64 -120 -160 -145 -210 -7 -14
-26 -47 -42 -75 -16 -27 -30 -58 -30 -67 -1 -10 -8 -18 -16 -18 -8 0 -15 -8
-15 -18 0 -11 -9 -27 -20 -37 -11 -10 -20 -26 -20 -37 0 -10 -4 -18 -10 -18
-5 0 -10 -9 -10 -20 0 -11 -4 -20 -10 -20 -5 0 -10 -14 -10 -30 0 -18 -6 -33
-15 -36 -8 -4 -12 -10 -9 -15 3 -5 -2 -16 -10 -25 -20 -20 -21 -44 -1 -44 8 0
15 -5 15 -10 0 -7 -13 -9 -32 -5 -42 8 -50 -5 -84 -132 -31 -115 -46 -328 -30
-410 4 -21 2 -33 -4 -33 -6 0 -9 -4 -5 -9 3 -6 8 -38 11 -72 4 -51 3 -61 -9
-56 -29 11 -27 -7 3 -34 27 -25 29 -32 26 -78 -3 -32 0 -53 8 -60 6 -6 11 -29
11 -53 -1 -24 5 -53 13 -65 7 -12 11 -27 7 -32 -3 -6 4 -32 17 -58 12 -26 21
-54 20 -60 -2 -7 5 -24 13 -37 9 -14 14 -30 10 -35 -3 -6 -2 -18 3 -27 16 -28
35 9 29 58 -3 24 -8 70 -11 103 -3 33 -9 75 -12 94 -4 25 -2 32 8 29 7 -3 15
-13 17 -24 5 -27 21 -44 41 -44 21 0 29 27 26 93 -1 48 2 55 21 36 16 -16 25
5 13 35 -5 14 -6 27 -2 30 10 6 0 226 -13 265 -3 11 -1 22 5 26 5 3 10 0 10
-7 0 -8 9 -21 20 -31 12 -10 21 -30 21 -49 3 -58 24 -136 42 -154 3 -3 3 -19
0 -35 -3 -18 1 -38 11 -54 9 -13 16 -34 16 -46 0 -12 9 -38 19 -58 11 -20 34
-79 51 -131 56 -168 107 -255 122 -208 3 9 6 9 12 0 4 -7 2 -12 -3 -12 -6 0
-11 -9 -11 -19 0 -12 -11 -25 -27 -33 -15 -7 -33 -24 -39 -38 -12 -28 -7 -120
7 -120 6 0 40 28 77 63 37 34 91 83 120 109 28 26 52 51 52 57 0 6 6 11 13 12
20 0 58 56 81 119 12 34 40 81 66 111 25 29 45 55 46 58 2 21 29 61 41 61 7 0
19 11 25 25 6 14 15 25 20 25 4 0 8 9 8 20 0 22 20 26 38 8 13 -13 16 -3 12
37 -2 18 1 17 24 -7 14 -16 29 -28 33 -28 13 0 34 40 28 50 -4 6 1 10 9 10 20
0 20 -14 2 -32 -7 -8 -17 -25 -21 -37 -6 -21 -5 -23 11 -17 11 4 6 -4 -11 -18
-16 -14 -36 -23 -43 -21 -7 3 -11 1 -8 -4 3 -5 -1 -14 -9 -21 -8 -7 -15 -18
-15 -24 0 -13 -47 -66 -59 -66 -8 0 -84 -114 -96 -145 -13 -34 -23 -95 -15
-90 5 3 13 -8 18 -24 9 -27 8 -30 -11 -33 -16 -2 -22 -9 -21 -26 1 -20 -2 -23
-22 -18 -14 4 -24 2 -24 -4 0 -6 -5 -8 -11 -4 -15 9 -56 -13 -98 -50 -77 -70
-124 -123 -133 -148 -6 -16 -14 -28 -19 -28 -12 0 -59 -102 -59 -127 0 -37 29
-35 109 7 126 66 179 81 177 50 -1 -9 6 -14 17 -13 12 0 16 -4 13 -13 -6 -16
5 -24 50 -34 35 -8 114 6 114 20 0 5 14 11 30 15 17 4 30 13 30 22 0 10 6 13
16 9 11 -4 18 1 21 14 3 11 9 18 13 15 4 -3 10 4 13 15 3 10 20 28 38 39 28
17 45 19 104 15 38 -3 75 -7 82 -9 6 -2 13 0 15 6 2 5 17 11 33 13 17 2 52 16
77 30 50 28 63 32 53 16 -3 -5 1 -10 9 -10 10 0 16 -9 16 -25 0 -14 -5 -25
-11 -25 -6 0 -9 -7 -5 -15 3 -8 1 -15 -4 -15 -6 0 -10 -6 -10 -14 0 -20 38
-16 43 5 2 9 3 33 2 53 -4 38 3 44 24 24 11 -10 12 -10 7 -1 -9 16 3 83 16 83
5 0 20 12 33 28 18 21 26 24 36 15 9 -10 7 -19 -13 -45 -13 -18 -32 -49 -41
-68 -10 -19 -22 -42 -27 -50 -5 -8 -17 -52 -27 -97 -11 -52 -22 -83 -30 -83
-7 0 -13 7 -13 15 0 8 -6 15 -12 16 -7 0 -3 5 10 11 22 11 30 28 13 28 -5 0
-7 10 -3 22 4 17 2 20 -11 15 -10 -4 -18 1 -22 14 -4 10 -11 19 -16 19 -12 0
-11 -14 2 -27 8 -8 6 -19 -5 -39 l-15 -29 -1 33 c0 34 -6 38 -30 22 -13 -9
-13 -12 2 -24 13 -10 15 -15 6 -24 -9 -9 -6 -12 13 -12 15 0 35 -11 47 -25 12
-14 17 -25 12 -25 -17 0 -5 -69 15 -88 17 -16 17 -16 12 1 -5 12 -1 17 12 17
11 0 22 6 24 13 4 9 8 9 15 -2 9 -13 13 -13 29 -1 14 11 15 11 6 1 -16 -19 10
-45 37 -36 10 3 29 1 40 -5 25 -13 42 -4 20 10 -13 9 -13 10 0 10 22 0 39 -32
33 -63 -8 -42 -29 -33 -24 11 2 16 -11 15 -35 -3 -17 -13 -17 -14 -1 -15 23 0
22 -12 -3 -28 -27 -17 -38 -8 -32 24 4 24 3 25 -17 13 -13 -9 -19 -20 -15 -31
7 -24 -8 -23 -26 2 -8 11 -22 20 -32 20 -9 0 -20 4 -23 10 -3 5 1 10 9 10 9 0
16 5 16 10 0 6 -10 10 -23 10 -13 0 -28 5 -35 12 -8 8 -12 8 -12 1 0 -6 7 -16
15 -23 8 -7 13 -16 10 -20 -3 -5 -1 -11 5 -15 5 -3 10 -12 10 -18 0 -7 -5 -4
-11 6 -11 18 -29 23 -29 8 0 -5 7 -16 15 -25 22 -22 19 -25 -20 -19 -23 4 -35
2 -35 -6 0 -6 14 -11 30 -11 30 0 43 -24 18 -33 -23 -8 -4 -15 25 -10 19 4 26
10 23 19 -3 8 -9 22 -12 32 -5 14 -4 14 5 2 5 -8 13 -11 17 -7 9 9 44 -22 44
-40 0 -7 -4 -13 -10 -13 -5 0 -10 -5 -10 -11 0 -6 8 -8 18 -5 11 4 8 -1 -8
-16 -15 -13 -18 -19 -8 -15 10 3 20 2 23 -3 4 -6 -1 -10 -9 -10 -8 0 -18 -4
-21 -10 -4 -6 12 -10 40 -10 33 0 45 4 42 13 -2 6 -12 10 -22 9 -16 -3 -17 -2
-6 12 12 15 16 15 37 1 13 -8 25 -11 28 -7 3 5 -8 16 -25 26 -16 9 -29 24 -29
32 0 12 4 12 25 -2 14 -9 25 -21 25 -26 0 -6 10 -8 21 -5 12 3 29 1 39 -5 19
-12 90 -2 90 12 0 6 -7 10 -15 10 -8 0 -15 5 -15 10 0 6 7 10 15 10 10 0 15 7
13 18 -2 13 3 16 20 14 15 -2 22 2 22 13 0 9 4 14 9 10 5 -3 13 0 16 6 4 6 17
8 30 5 39 -10 65 35 41 72 -6 10 -1 11 21 7 15 -3 23 -3 16 1 -7 3 -9 12 -6
20 7 18 -2 18 -32 -2 -13 -8 -27 -29 -30 -45 -4 -16 -11 -29 -16 -29 -10 0 0
60 14 78 14 18 -3 15 -26 -6 -12 -10 -17 -11 -12 -3 5 9 2 18 -9 26 -21 16 -7
28 53 50 24 8 60 29 82 46 29 23 39 27 39 15 0 -9 -4 -16 -10 -16 -5 0 -10 -6
-10 -14 0 -8 -13 -25 -29 -38 l-30 -23 22 -26 c19 -23 32 -27 100 -33 75 -6
79 -5 102 20 13 14 29 23 34 19 6 -3 11 -1 11 4 0 6 -4 11 -9 11 -12 0 5 34
42 81 15 20 27 39 27 43 0 25 117 155 178 196 37 26 92 41 92 25 0 -10 -53
-90 -81 -122 -40 -46 -106 -163 -114 -201 -9 -45 31 -98 81 -108 57 -11 184
28 251 76 59 42 83 49 83 26 0 -19 50 -67 83 -78 37 -14 34 -24 -15 -49 -47
-23 -131 -106 -154 -151 l-15 -28 81 0 c73 0 80 2 80 19 0 43 160 171 213 171
37 0 14 -39 -79 -136 l-51 -54 118 0 118 0 34 43 c47 58 102 145 120 188 12
30 25 40 83 64 38 16 85 39 105 51 20 13 39 21 42 18 2 -2 1 -24 -4 -47 -22
-115 -3 -175 66 -201 58 -23 93 -20 176 14 87 35 79 34 79 16 0 -8 15 -26 33
-40 41 -31 104 -35 169 -10 46 18 138 83 176 123 24 26 26 23 13 -32 -15 -61
2 -100 52 -125 l44 -22 69 22 c61 19 87 33 177 98 20 14 20 13 -2 -25 -13 -22
-28 -44 -33 -50 -12 -13 -10 -39 5 -58 9 -13 31 -19 80 -22 104 -7 108 -4 158
110 11 28 32 64 45 82 13 17 24 36 24 41 0 13 107 152 133 172 22 17 87 37 87
26 0 -13 -51 -116 -58 -116 -4 0 -12 -10 -18 -23 -5 -12 -21 -42 -34 -67 -39
-75 -40 -78 -40 -136 0 -98 -9 -94 222 -94 l202 0 -35 26 c-19 14 -62 40 -96
56 -48 23 -63 36 -63 52 0 11 25 61 56 111 83 135 118 213 120 270 2 28 3 52
4 55 0 3 5 -2 10 -10 8 -13 10 -12 10 3 0 9 -5 17 -12 17 -6 0 -22 10 -36 23
-45 42 -201 22 -231 -31 -11 -19 -14 -12 -12 33 2 41 -32 63 -111 74 -88 12
-122 -13 -133 -100 -4 -27 -59 -109 -107 -161 -16 -16 -28 -31 -28 -33 0 -13
-136 -132 -168 -147 -36 -17 -37 -16 -40 3 -4 21 56 129 70 129 4 0 8 5 8 12
0 6 17 32 38 57 21 25 49 64 62 86 13 22 27 42 30 45 12 10 10 79 -2 87 -7 4
-29 13 -48 18 -32 10 -28 11 39 11 49 0 76 4 79 12 5 17 42 15 42 -3 0 -8 7
-15 15 -15 16 0 34 28 33 50 -3 42 3 48 45 55 23 4 48 12 55 17 8 7 12 7 12
-1 0 -6 3 -10 8 -10 19 3 23 -2 12 -16 -9 -10 -9 -15 -1 -15 6 0 11 5 11 10 0
6 9 10 21 10 13 0 18 4 13 13 -6 9 -4 9 8 -1 13 -11 16 -9 16 12 0 14 -8 28
-16 31 -10 4 -12 9 -7 13 6 4 16 19 22 34 7 16 17 28 23 28 8 0 7 -6 0 -20 -7
-14 -7 -20 0 -20 5 0 10 4 10 9 0 5 9 7 20 4 24 -6 24 -5 5 40 -19 45 -19 51
-1 44 10 -4 13 -1 9 9 -4 10 0 12 11 8 15 -6 20 -19 19 -51 -1 -14 31 -23 47
-13 9 5 5 12 -11 23 -12 9 -20 20 -16 24 4 3 13 1 19 -5 16 -16 28 -15 28 3 0
9 -6 12 -15 9 -8 -4 -15 -1 -15 5 0 6 -10 11 -22 11 -19 0 -20 2 -8 10 8 5 27
10 42 10 31 0 47 18 27 31 -11 7 -11 9 2 9 9 0 19 9 22 20 4 14 12 19 31 18
14 -1 26 -8 26 -16 0 -7 7 -12 16 -10 10 2 19 -3 21 -9 3 -9 -5 -13 -24 -13
-17 0 -33 -8 -41 -20 -16 -25 -32 -26 -25 -1 3 11 13 21 24 24 10 3 19 10 19
15 0 6 -9 8 -19 5 -20 -5 -45 -56 -34 -67 4 -3 1 -6 -6 -6 -7 0 -9 -5 -6 -10
4 -6 20 0 39 15 38 29 52 31 59 11 4 -10 -2 -16 -16 -19 -19 -3 -20 -4 -5 -11
23 -11 52 16 35 33 -8 8 -8 11 2 11 7 0 15 -9 18 -20 6 -23 23 -26 41 -8 16
16 15 33 -1 19 -21 -16 -29 0 -11 20 9 10 23 15 32 12 15 -5 15 -4 0 13 -17
17 -18 17 -38 -4 -12 -12 -22 -22 -23 -22 -7 0 0 90 7 97 5 5 6 3 2 -4 -9 -16
30 -18 39 -3 5 8 11 7 21 -1 22 -18 17 -31 -7 -18 -17 9 -20 8 -17 -3 3 -7 13
-13 24 -13 13 0 18 6 17 21 -2 17 2 21 17 17 15 -4 18 -1 13 19 -3 12 -10 29
-16 36 -6 8 -6 12 1 12 6 0 16 -8 21 -17 9 -16 10 -16 11 5 0 12 -6 22 -12 22
-10 0 -10 2 0 9 7 4 12 12 11 17 -4 21 2 54 9 54 4 0 13 -12 19 -27 10 -20 10
-29 1 -34 -17 -11 -17 -61 0 -54 7 3 22 5 33 5 30 0 22 20 -8 21 -25 2 -26 2
-5 6 14 3 32 -3 44 -14 21 -18 21 -18 15 5 -4 19 -2 22 15 16 18 -5 20 -3 14
19 -4 16 -1 27 7 30 9 3 12 16 9 36 -3 22 0 31 9 31 9 1 8 4 -4 11 -10 6 -25
8 -33 5 -8 -3 -14 -1 -14 4 0 6 5 10 11 10 5 0 8 4 5 9 -4 5 0 11 6 13 15 5
20 108 6 108 -6 0 -8 6 -5 14 3 8 2 17 -4 20 -5 2 -4 3 3 2 7 -2 23 1 36 5 15
6 22 5 22 -3 0 -6 7 -20 16 -30 14 -14 14 -20 4 -33 -15 -18 -7 -19 21 -5 16
9 17 14 8 31 -8 16 -8 24 1 33 9 8 11 8 8 -3 -2 -7 3 -16 10 -18 6 -3 12 2 12
11 0 22 13 26 46 16 25 -7 26 -8 6 -9 -13 -1 -21 -5 -18 -10 4 -5 18 -6 34 -2
23 6 27 13 27 42 0 19 4 39 8 46 10 15 37 5 37 -13 0 -8 6 -17 14 -20 17 -7 9
-44 -10 -44 -8 0 -14 -11 -14 -26 0 -29 22 -29 26 1 1 10 8 21 14 25 7 4 11
10 11 14 -1 3 0 9 0 14 1 4 1 15 0 24 -2 12 3 16 13 12 25 -10 36 4 24 31 -9
20 -14 22 -34 15 -13 -5 -24 -7 -24 -4 0 4 -6 1 -13 -5 -8 -6 -17 -8 -20 -5
-8 9 11 44 24 44 6 0 8 -3 5 -8 -2 -4 14 -7 36 -7 27 0 43 -6 49 -18 12 -21
31 -23 23 -2 -4 8 -1 15 6 15 6 0 8 5 5 11 -4 6 2 5 14 -3 12 -7 21 -17 21
-22 0 -4 14 6 32 23 33 32 63 40 71 19 4 -10 7 -10 18 0 20 19 30 14 23 -12
-3 -13 -1 -27 5 -30 17 -11 13 -29 -5 -22 -14 5 -15 4 -4 -9 12 -15 15 -66 7
-128 -3 -15 0 -27 5 -27 5 0 7 -4 4 -8 -3 -4 0 -26 5 -48 26 -101 36 -160 31
-168 -3 -5 2 -7 11 -3 11 4 14 2 11 -8 -3 -8 3 -30 15 -48 12 -19 21 -42 21
-51 0 -15 2 -15 19 1 13 12 19 32 19 62 1 24 5 48 11 54 6 6 7 17 2 26 -8 17
-7 261 3 375 6 76 17 96 40 77 11 -9 17 -9 27 1 20 19 79 21 79 3 0 -8 9 -15
20 -15 10 0 23 -7 28 -16 7 -13 13 -13 35 -3 15 7 27 15 27 19 0 4 14 7 30 7
20 0 26 -3 18 -9 -10 -6 -9 -8 3 -8 11 0 17 -9 17 -25 0 -35 6 -39 33 -23 36
20 47 33 55 62 8 31 24 29 41 -5 7 -13 13 -19 13 -13 0 14 48 25 56 13 3 -5
10 -9 16 -9 6 0 4 8 -5 18 -21 23 -13 32 26 32 30 0 30 0 11 21 -18 20 -18 20
11 14 51 -11 55 -14 55 -32 0 -16 -2 -16 -11 -3 -9 13 -10 13 -6 0 2 -9 13
-14 25 -12 14 2 22 -2 22 -12 0 -10 -6 -13 -15 -10 -12 5 -15 -2 -15 -28 0
-19 3 -38 8 -42 7 -8 9 -13 11 -43 1 -14 4 -12 14 7 20 38 28 98 14 104 -7 2
-2 8 10 11 25 8 41 49 44 110 5 127 -1 160 -31 170 -11 3 -20 15 -20 26 0 10
-6 18 -12 16 -7 -1 -12 4 -11 11 2 6 -1 12 -6 12 -6 0 -13 -6 -18 -12 -5 -9
-9 -3 -13 16 -3 16 -12 31 -20 34 -12 4 -13 2 -2 -9 6 -7 12 -18 12 -23 0 -17
-47 38 -74 86 -14 24 -30 42 -35 41 -6 -2 -11 3 -11 11 0 8 -7 16 -15 20 -8 3
-20 17 -25 31 -6 15 -14 24 -18 21 -10 -6 -42 29 -42 45 0 7 -11 9 -25 7 -20
-4 -25 -1 -25 14 0 12 -11 23 -30 29 -16 6 -30 18 -30 26 0 10 -6 12 -21 8
-12 -4 -19 -3 -16 2 3 5 -3 16 -15 24 -11 8 -26 19 -32 25 -25 24 -69 48 -93
50 -14 2 -33 10 -42 18 -10 9 -22 16 -28 16 -16 0 -91 36 -138 65 -22 14 -53
31 -69 37 -25 9 -110 53 -181 92 -34 18 -88 58 -117 84 -14 13 -31 21 -36 18
-6 -4 -13 -2 -17 4 -3 5 -16 10 -29 10 -15 0 -27 9 -34 25 -6 14 -16 25 -21
25 -6 0 -22 11 -37 25 -14 13 -46 34 -70 45 -24 12 -58 32 -76 44 -48 32 -70
39 -79 24 -6 -10 -11 -10 -20 -1 -9 9 -17 8 -34 -3 -28 -18 -22 -61 11 -76
l23 -11 -24 -18 c-25 -21 -55 -25 -55 -8 0 5 -4 7 -10 4 -5 -3 -19 9 -31 27
l-21 33 7 -30 c6 -27 5 -29 -10 -14 -23 23 -27 77 -7 97 13 13 17 32 15 81 -2
54 -6 68 -29 92 -31 32 -57 40 -29 9 21 -23 14 -75 -15 -113 -11 -14 -20 -30
-20 -36 0 -6 -4 -11 -9 -11 -5 0 -12 -9 -16 -19 -3 -11 -19 -24 -35 -30 -17
-5 -30 -17 -30 -26 0 -9 -5 -13 -10 -10 -7 4 -9 -2 -5 -17 4 -17 0 -29 -14
-42 -23 -21 -29 -9 -8 14 9 10 5 10 -13 -2 -26 -16 -46 -68 -27 -69 7 0 3 -4
-8 -9 -30 -13 -35 -12 -28 6 4 12 2 15 -8 12 -8 -3 -13 -15 -11 -27 3 -17 -1
-22 -14 -19 -9 1 -19 9 -22 17 -3 9 0 11 9 6 8 -4 5 2 -7 14 -19 20 -22 21
-48 7 -38 -19 -63 -11 -41 14 8 9 15 21 15 26 0 5 20 31 45 58 25 27 45 53 45
58 0 5 12 27 26 50 75 119 90 178 63 259 -17 51 -38 69 -76 69 -19 0 -47 7
-62 14 -15 8 -51 18 -80 22 -58 8 -125 50 -177 115 l-31 38 -7 -97 c-3 -53 -9
-131 -12 -172 -2 -41 -8 -95 -11 -120 -4 -25 -5 -49 -4 -54 1 -5 -1 -16 -5
-25 -4 -9 -8 -24 -9 -33 -2 -10 -4 -21 -5 -25 -2 -5 -4 -12 -4 -18 -1 -5 -7
-20 -14 -32 -7 -12 -14 -37 -16 -55 -3 -23 -9 -33 -20 -32 -9 1 -16 -6 -16
-16 0 -10 -9 -28 -20 -41 -14 -17 -18 -19 -14 -6 3 9 2 17 -4 17 -12 0 -26
-29 -23 -47 1 -7 -3 -13 -9 -13 -5 0 -10 -9 -10 -19 0 -24 -14 -34 -48 -35
-14 -1 -27 -8 -29 -16 -4 -13 -3 -13 6 0 6 8 11 11 11 5 0 -13 -65 -65 -82
-65 -8 0 -19 -5 -26 -12 -6 -6 -22 -13 -34 -15 -12 -2 -34 -11 -48 -20 -14
-10 -29 -16 -34 -15 -5 2 -29 -14 -55 -35 -68 -57 -110 -67 -238 -59 -59 4
-144 10 -188 12 -43 3 -86 9 -95 13 -8 4 -28 7 -45 6 -16 -1 -32 1 -35 5 -9
11 -77 40 -94 40 -9 0 -16 5 -16 10 0 6 -4 10 -10 10 -5 0 -10 -8 -10 -17 0
-14 -2 -15 -9 -4 -6 9 -10 10 -16 2 -5 -8 -13 -5 -26 10 -15 18 -21 19 -33 9
-9 -6 -20 -9 -26 -5 -5 3 -10 2 -10 -4 0 -14 -32 -1 -47 18 -13 19 -8 31 14
31 12 0 13 -3 4 -14 -9 -10 -8 -15 4 -20 14 -5 16 -2 19 37 1 6 -8 13 -19 13
-11 1 -28 2 -37 3 -14 1 -16 6 -9 23 4 13 5 35 1 50 -5 14 -6 29 -2 32 3 3 -4
16 -15 29 -12 12 -29 41 -38 64 -17 41 -16 44 6 90 13 27 25 60 26 76 2 15 10
43 18 63 8 20 12 40 9 46 -3 5 2 8 12 6 13 -2 19 3 19 16 0 11 6 21 14 24 10
3 12 0 7 -14 -5 -14 -4 -16 4 -8 7 7 13 24 13 38 2 19 6 25 17 20 15 -5 -4 17
-85 100 -22 23 -60 65 -85 95 -25 29 -49 59 -55 65 -39 44 -76 98 -89 129 -8
21 -19 37 -23 37 -5 0 -19 28 -33 63 -13 34 -34 82 -47 106 -12 24 -21 47 -18
51 3 4 -1 10 -9 13 -8 3 -24 26 -37 52 -20 40 -39 65 -39 52z m2005 -567 c3
-5 2 -10 -4 -10 -5 0 -13 5 -16 10 -3 6 -2 10 4 10 5 0 13 -4 16 -10z m25 -70
c0 -11 -4 -20 -10 -20 -5 0 -10 9 -10 20 0 11 5 20 10 20 6 0 10 -9 10 -20z
m20 -102 c0 -19 -2 -20 -10 -8 -13 19 -13 30 0 30 6 0 10 -10 10 -22z m-3920
-38 c0 -5 -4 -10 -10 -10 -5 0 -10 5 -10 10 0 6 5 10 10 10 6 0 10 -4 10 -10z
m3934 -45 c3 -8 1 -15 -4 -15 -6 0 -10 7 -10 15 0 8 2 15 4 15 2 0 6 -7 10
-15z m20 -90 c3 -8 1 -15 -4 -15 -6 0 -10 7 -10 15 0 8 2 15 4 15 2 0 6 -7 10
-15z m6 -125 c-1 -12 -4 -11 -15 4 -8 10 -12 23 -8 29 7 11 23 -12 23 -33z
m600 20 c0 -11 -6 -20 -14 -20 -9 0 -12 7 -9 20 3 11 9 20 14 20 5 0 9 -9 9
-20z m-150 -61 c0 -9 -7 -16 -15 -16 -10 0 -14 6 -10 14 3 8 5 22 5 31 0 15 2
15 10 2 5 -8 10 -22 10 -31z m190 31 c0 -5 -2 -10 -4 -10 -3 0 -8 5 -11 10 -3
6 -1 10 4 10 6 0 11 -4 11 -10z m-543 -117 c-9 -9 -20 -13 -24 -9 -4 4 -1 11
7 16 25 16 35 11 17 -7z m29 -63 c0 -25 -5 -40 -13 -40 -7 0 -13 -4 -13 -8 0
-4 -16 -15 -35 -24 -19 -8 -35 -12 -35 -7 0 5 5 9 10 9 6 0 10 13 10 30 0 32
35 77 61 79 13 1 16 -8 15 -39z m-1661 -171 c-10 -15 -25 -10 -19 6 4 8 10 12
15 9 5 -3 7 -10 4 -15z m1433 -165 c-9 -9 -21 -13 -27 -9 -16 10 -3 25 22 25
20 0 20 -1 5 -16z m-398 -93 c0 -5 -7 -11 -14 -14 -10 -4 -13 -1 -9 9 6 15 23
19 23 5z m-278 -76 c0 -16 -28 -29 -48 -21 -17 6 -16 8 6 20 28 15 41 15 42 1z
m38 1 c0 -3 -4 -8 -10 -11 -5 -3 -10 -1 -10 4 0 6 5 11 10 11 6 0 10 -2 10 -4z
m700 -412 c0 -8 -5 -12 -10 -9 -6 4 -8 11 -5 16 9 14 15 11 15 -7z m35 -4 c3
-5 -1 -10 -9 -10 -9 0 -16 5 -16 10 0 6 4 10 9 10 6 0 13 -4 16 -10z m72 -18
c-22 -24 -21 -33 1 -25 16 6 16 5 -1 -14 -14 -16 -15 -22 -5 -26 7 -2 1 -4
-14 -4 -30 -1 -38 14 -13 23 8 4 12 10 9 16 -5 8 22 48 34 48 3 0 -2 -8 -11
-18z m46 -2 c-3 -11 -9 -20 -14 -20 -10 0 -12 24 -2 33 13 13 21 7 16 -13z
m-183 0 c0 -3 -5 -11 -11 -17 -8 -8 -7 -13 2 -18 7 -5 10 -4 6 2 -8 12 20 26
34 18 4 -3 19 1 32 10 23 15 25 14 30 -5 3 -11 1 -23 -4 -26 -18 -11 -10 -44
11 -44 11 0 20 -4 20 -8 0 -13 -23 -39 -40 -45 -12 -4 -12 -6 2 -6 24 -1 35
-61 14 -76 -21 -16 -20 -27 2 -23 10 2 17 -3 17 -12 0 -8 9 -17 19 -20 32 -9
29 -26 -5 -24 -17 1 -28 -1 -24 -4 4 -4 14 -7 22 -7 9 0 18 -6 20 -13 3 -7 -1
-10 -11 -6 -9 3 -16 1 -16 -5 0 -6 8 -11 17 -11 9 0 14 -2 11 -5 -3 -4 -17 -3
-32 1 -18 4 -26 13 -26 28 -1 16 -4 13 -15 -13 -8 -18 -15 -38 -14 -45 0 -6 4
-1 10 12 8 21 10 22 25 8 8 -9 13 -20 9 -25 -3 -5 -1 -12 5 -16 5 -3 10 -11
10 -17 0 -6 -8 -4 -18 5 -24 22 -33 22 -25 0 5 -12 3 -14 -7 -8 -10 6 -12 2
-8 -19 4 -18 1 -26 -8 -26 -8 0 -14 10 -15 23 0 21 -1 21 -9 2 -6 -15 -2 -24
13 -36 20 -16 20 -18 3 -43 -15 -23 -15 -27 -1 -32 8 -3 15 -12 15 -19 0 -7 7
-18 15 -25 10 -9 15 -9 15 -1 0 6 12 11 28 12 15 0 21 3 15 6 -19 7 -16 21 4
25 10 2 26 -5 35 -14 23 -23 23 -32 1 -24 -14 5 -14 2 3 -12 l21 -18 -25 -19
c-14 -10 -21 -20 -15 -22 7 -3 2 -14 -10 -27 -12 -12 -26 -20 -32 -17 -5 3 -4
-3 4 -12 17 -22 31 -22 31 0 0 9 3 14 6 10 12 -12 -8 -49 -23 -42 -13 5 -14 3
-3 -10 10 -13 15 -13 21 -3 4 7 11 9 16 5 16 -17 -22 -26 -45 -11 -13 9 -26
13 -29 10 -4 -3 -12 -1 -19 5 -14 12 -34 4 -34 -13 0 -7 6 -6 15 2 12 10 15 9
15 -4 0 -10 4 -15 9 -12 9 6 35 -20 44 -46 4 -11 -1 -18 -15 -21 -11 -3 -17
-10 -13 -16 3 -7 0 -8 -9 -5 -8 3 -17 12 -20 20 -4 10 -2 12 5 8 7 -4 10 -1 7
7 -7 22 -38 24 -38 2 0 -15 -2 -16 -10 -3 -9 14 -15 7 -11 -14 1 -5 -4 -13
-11 -18 -10 -7 -9 -11 5 -22 21 -17 22 -26 1 -26 -13 0 -15 -6 -9 -27 3 -16
10 -29 15 -31 5 -2 6 -10 3 -19 -5 -12 -1 -14 15 -8 13 3 22 2 22 -4 0 -5 -9
-12 -19 -16 -12 -4 -18 -12 -14 -21 3 -9 -1 -14 -11 -14 -13 0 -16 8 -14 35 4
64 -58 120 -122 110 -59 -10 -84 -24 -108 -62 -30 -45 -31 -96 -3 -134 12 -15
21 -30 21 -33 0 -2 -17 -2 -38 1 -25 3 -50 -1 -70 -11 -27 -14 -32 -22 -32
-52 0 -26 -12 -53 -47 -102 -113 -159 -323 -323 -323 -254 0 21 66 128 114
184 79 93 109 140 113 182 7 60 -9 70 -117 71 -101 0 -123 -12 -135 -71 -3
-19 -19 -54 -36 -77 -16 -23 -58 -85 -93 -137 -101 -151 -109 -157 -183 -152
-40 3 -31 60 24 139 25 37 51 73 58 78 16 14 88 105 108 137 21 34 22 72 1 89
-22 18 -162 23 -194 6 -16 -8 -29 -27 -37 -58 -10 -36 -30 -63 -88 -120 -82
-80 -155 -134 -199 -145 -27 -6 -28 -6 -15 17 7 13 40 67 74 119 101 156 114
182 104 208 -9 24 -45 42 -85 42 -30 0 -30 7 -1 31 16 14 38 18 86 19 78 0
135 15 180 48 27 20 35 22 42 11 5 -8 9 -19 9 -26 0 -22 41 -35 101 -31 32 1
59 0 59 -3 0 -4 13 -12 30 -19 25 -10 37 -10 72 5 23 9 54 25 69 36 33 23 43
24 35 3 -12 -31 12 -54 58 -54 73 0 226 94 226 139 0 31 -35 27 -80 -9 -40
-32 -60 -38 -60 -17 0 6 52 66 115 132 89 93 115 126 115 147 0 32 -24 48 -74
48 -32 0 -36 -3 -42 -35 -7 -38 -32 -59 -58 -49 -13 5 -9 14 22 44 42 42 112
172 112 208 0 12 3 21 8 21 19 -3 25 2 12 11 -13 9 -13 12 4 25 10 7 15 18 12
23 -3 6 1 13 9 16 8 3 14 9 13 13 -3 13 14 57 29 75 8 9 12 22 8 28 -4 6 14
35 40 65 25 30 44 59 40 64 -3 5 4 16 15 24 11 7 18 16 15 18 -2 3 5 5 16 6
11 1 17 -2 14 -8 -4 -5 -1 -9 4 -9 11 0 15 13 12 37 -1 6 8 11 19 10 11 -1 20
-4 20 -7z m-3949 -44 c-10 -11 -9 -16 4 -23 15 -9 15 -11 1 -22 -9 -8 -16 -21
-16 -31 0 -10 -7 -20 -15 -24 -8 -3 -15 -12 -15 -21 0 -8 -6 -15 -12 -15 -7 0
-24 -23 -37 -50 -13 -28 -26 -50 -31 -50 -9 0 -96 -110 -127 -159 -39 -63 -99
-194 -124 -268 -13 -40 -26 -69 -29 -65 -3 5 -18 14 -35 21 -31 12 -85 100
-85 138 0 10 -6 36 -14 58 -8 22 -13 58 -12 80 1 25 -5 45 -14 53 -8 8 -10 11
-4 8 14 -7 24 60 24 160 0 80 13 99 24 33 12 -75 30 -119 48 -119 12 0 15 5
11 17 -4 10 -2 14 4 10 6 -4 13 -33 17 -64 4 -32 13 -69 20 -82 9 -17 11 -36
4 -70 -4 -25 -6 -51 -3 -58 8 -23 23 -14 31 19 22 104 145 311 245 414 27 28
49 58 49 65 0 24 35 48 53 37 13 -7 15 -5 11 6 -3 9 2 16 13 18 20 3 32
14 12 12 18 21 14 21 -4 0 -1 7 6 15 14 15 68 21 68 7z m1340 -12 c0 -5 7 -7
16 -3 14 5 15 3 5 -14 -12 -23 -38 -36 -52 -27 -5 3 -9 -3 -9 -14 0 -21 -46
-72 -64 -72 -6 0 -17 -14 -25 -31 l-13 -31 -13 24 c-13 26 -9 41 5 18 6 -8 10
-10 11 -5 1 6 2 15 4 20 1 6 3 16 3 23 1 7 7 10 12 7 6 -3 10 5 10 19 0 33 17
76 30 76 5 0 10 -10 10 -22 1 -22 1 -22 15 -4 9 12 20 16 31 12 13 -5 14 -4 6
7 -7 8 -9 17 -5 20 10 10 23 8 23 -3z m1065 -43 c14 -11 17 -21 11 -47 -3 -19
-13 -41 -21 -10 -9 -10 -8 0 -18 5 -21 10 -3 6 1 10 9 10 8 0 18 -4 21
-10z m-145 -80 c11 -7 -1 -10 -40 -10 -39 0 -51 3 -40 10 8 5 26 10 40 10 14
0 32 -5 4021 22 -32z m-153 -120 c0 -5 -8 -10 -17 -10 -15 0
-16 2 -3 10 19 12 20 12 20 0z"/>







</g>
</svg>
